PathFileType	4	(X/Y/Z)	OpenSim_Sub02_EMGStiffKnee_Accel.trc
DataRate	CameraRate	NumFrames	NumMarkers	Units	OrigDataRate	OrigDataStartFrame	OrigNumFrames
100	100	42	8	m	100	1	7890
Frame#	Time	torso_imu_offset_imu	pelvis_imu_offset_imu	tibia_r_imu_offset_imu	femur_r_imu_offset_imu	tibia_l_imu_offset_imu	femur_l_imu_offset_imu	toes_r_imu_offset_imu	toes_l_imu_offset_imu
				X1	Y1	Z1	X2	Y2	Z2	X3	Y3	Z3	X4	Y4	Z4	X5	Y5	Z5	X6	Y6	Z6	X7	Y7	Z7	X8		Y8	Z8	

1	0	8.55155170	-0.19413550	7.45255563	9.48200524	-0.02126642	3.00110378	9.66123143	1.67329903	2.11104618	9.67578998	-0.83835328	0.72214545	9.67707073	-0.69333689	1.72887986	9.74869118	-0.62899591	-0.83712824	4.42427923	0.62109688	8.91163078	3.57491041	0.55900791	11.87647840
2	0.01000000	8.60064414	-0.16182308	7.43996524	9.48863322	-0.02271704	2.99700071	9.64787357	1.67137629	2.12053450	9.67353208	-0.84633203	0.74318308	9.66200456	-0.71546592	1.74559904	9.73835184	-0.65074606	-0.80526367	4.42493925	0.60863273	8.97180713	3.59693627	0.56411234	11.86672558
3	0.02000000	8.64503765	-0.21482404	7.45357168	9.47599343	-0.00604238	3.02308684	9.68407223	1.57085667	2.09008891	9.68705568	-0.87784062	0.75253431	9.66885903	-0.73216136	1.71834722	9.75656438	-0.64067825	-0.80006024	4.42215367	0.63771715	8.95065019	3.58158948	0.59632948	11.85301991
4	0.03000000	8.58150816	-0.30550839	7.50344365	9.45535439	-0.00587227	3.04456535	9.66940356	1.52083801	2.14121821	9.68969822	-0.89834297	0.72026070	9.67332172	-0.72699931	1.71410398	9.74594733	-0.63002083	-0.82707614	4.41802322	0.65375403	8.93133793	3.56912627	0.58438847	11.83657953
5	0.04000000	8.51869742	-0.26713292	7.50389483	9.45605377	-0.01344614	3.01340266	9.64113998	1.54373619	2.11866880	9.67388490	-0.90049243	0.71750516	9.67630778	-0.72189013	1.70642026	9.73518263	-0.61687716	-0.79192440	4.44764771	0.63324425	8.96281923	3.58996667	0.57769943	11.82540723
6	0.05000000	8.53922463	-0.21029673	7.44089433	9.47178474	-0.02436911	3.03743075	9.63365022	1.57001555	2.06432160	9.67627828	-0.88651067	0.70617666	9.66716058	-0.74740375	1.73295384	9.76562771	-0.62327263	-0.80942611	4.44645935	0.63545025	8.95707844	3.58767133	0.56812716	11.82815208
7	0.06000000	8.58866519	-0.15890004	7.48811175	9.50624795	-0.03679039	3.03568759	9.64201584	1.61289577	2.05498555	9.66659312	-0.90916339	0.67964217	9.66901450	-0.74112342	1.75384037	9.74414254	-0.62895318	-0.81431865	4.43960351	0.63688481	8.95784812	3.61276923	0.56315039	11.83722135
8	0.07000000	8.60867908	-0.16457893	7.47948612	9.49965851	-0.05670539	2.99001643	9.64965305	1.65319778	2.06021738	9.65525744	-0.88998713	0.72392439	9.64987494	-0.70703953	1.75352727	9.73511884	-0.61286859	-0.82384881	4.44977483	0.63653798	8.96311736	3.59159337	0.56905309	11.83868188
9	0.08000000	8.57983417	-0.19229787	7.46542675	9.51301714	-0.02321283	3.00555940	9.63539466	1.67859201	2.08031463	9.66456644	-0.87815271	0.74451126	9.65472468	-0.71763433	1.75787691	9.77517832	-0.57826398	-0.84467660	4.42103043	0.63119629	8.94146169	3.55394450	0.54882059	11.85723627
10	0.09000000	8.55687095	-0.18636561	7.49117692	9.50076386	-0.01436220	3.00395334	9.61607539	1.69097864	2.12999089	9.68126108	-0.86845626	0.71689286	9.68105083	-0.68296721	1.77308711	9.76679153	-0.59090375	-0.85264012	4.42238869	0.62147956	8.93156757	3.58880897	0.54951201	11.86515983
11	0.10000000	8.55445769	-0.18663955	7.48375401	9.48891627	-0.04382728	2.98146560	9.62941658	1.70210136	2.11430181	9.69054862	-0.84204142	0.73240065	9.67331998	-0.68260177	1.74655664	9.73232149	-0.59280827	-0.81622256	4.42286137	0.65103686	8.96726793	3.58177186	0.56214433	11.82488924
12	0.11000000	8.57567446	-0.18458520	7.48934861	9.51464047	-0.03908302	2.97107871	9.66360570	1.69095227	2.08337241	9.69399376	-0.87585749	0.74775722	9.66640798	-0.71022257	1.75318465	9.75075330	-0.59973258	-0.82993584	4.39389328	0.64903755	8.95480758	3.59690893	0.58191930	11.84077909
13	0.12000000	8.59824729	-0.18609672	7.47836664	9.52331182	0.00333984	2.96785778	9.66058153	1.63421425	2.07566688	9.68769320	-0.86345739	0.76039977	9.65660981	-0.72274082	1.76417579	9.77868602	-0.58558719	-0.84152641	4.42094478	0.63483320	8.93167184	3.59855020	0.58010380	11.86020510
14	0.13000000	8.61416947	-0.21978193	7.48498335	9.52346785	-0.01457351	2.95487160	9.65664209	1.59289995	2.09211008	9.66892227	-0.84525313	0.76509096	9.65177865	-0.76224928	1.75140633	9.77001725	-0.57735176	-0.82145172	4.43757057	0.64922387	8.94202836	3.57584057	0.56705317	11.83974439
15	0.14000000	8.60576828	-0.20627179	7.51100243	9.50787809	-0.02286907	2.96969971	9.67036071	1.62045519	2.13552358	9.68976874	-0.85471024	0.73698447	9.65160430	-0.78010798	1.72680666	9.73658116	-0.58956708	-0.80555751	4.39056691	0.63208255	8.95864687	3.60718598	0.57963114	11.82995853
16	0.15000000	8.60480424	-0.17324700	7.48235746	9.49587779	0.02034501	2.96994571	9.69258708	1.65456173	2.10392430	9.69433447	-0.85369727	0.72303051	9.66884456	-0.76714391	1.75227561	9.73211397	-0.57293749	-0.82018433	4.42474796	0.60522295	8.93105295	3.58386012	0.59156147	11.84066307
17	0.16000000	8.58076419	-0.18987154	7.47256739	9.52301699	0.00295021	2.96856721	9.66336422	1.67467178	2.09607395	9.67097179	-0.84469704	0.71750589	9.66273595	-0.77444430	1.77657296	9.73964750	-0.59962214	-0.84150584	4.43325605	0.65584566	8.93097092	3.58526262	0.58367847	11.80864372
18	0.17000000	8.55820531	-0.19125586	7.47398369	9.52786968	-0.03698548	2.97479499	9.62829846	1.65906925	2.10610335	9.64891077	-0.87439330	0.74612096	9.65230550	-0.77257363	1.75988661	9.74519597	-0.60538318	-0.85292048	4.39385777	0.64191827	8.92468642	3.58206015	0.57897211	11.84149890
19	0.18000000	8.54936356	-0.18670914	7.52613760	9.52720993	-0.04262298	2.97734727	9.61937845	1.66796955	2.13222902	9.63824217	-0.86528598	0.68733918	9.65020852	-0.73543928	1.78690468	9.74257912	-0.62075178	-0.83780566	4.42477861	0.61951210	8.94162944	3.60155401	0.56165496	11.87381613
20	0.19000000	8.56549439	-0.20750015	7.48676915	9.55450765	-0.06392987	2.96055302	9.63924134	1.67331012	2.14247566	9.68542815	-0.87929549	0.67495829	9.65117990	-0.73909919	1.76063453	9.75397849	-0.65189537	-0.83531659	4.43439274	0.63489376	8.96282251	3.58627751	0.53320511	11.83555748
21	0.20000000	8.60208594	-0.20330167	7.47805614	9.53121842	-0.05827853	2.94151837	9.71145532	1.60602279	2.05499946	9.67781818	-0.89437970	0.73764717	9.66268033	-0.72643253	1.77823483	9.77663876	-0.64773017	-0.85599563	4.40206918	0.63239094	8.94043573	3.56585554	0.56341608	11.83934787
22	0.21000000	8.60212344	-0.20203602	7.51249587	9.54789076	-0.02630566	2.95745334	9.67926383	1.53850725	2.05541652	9.68566968	-0.88756978	0.71453510	9.64457615	-0.70510014	1.77606679	9.75420068	-0.65608353	-0.86375801	4.43512791	0.61919848	8.95907072	3.56000886	0.56147356	11.83682064
23	0.22000000	8.60678382	-0.17323878	7.53638773	9.53595705	0.00462198	2.98821477	9.62798116	1.54917088	2.06360500	9.67125879	-0.90355697	0.75531882	9.65906348	-0.72823223	1.77705637	9.76683416	-0.64791539	-0.83620272	4.42541830	0.61411269	8.98977101	3.57920195	0.55507791	11.84348650
24	0.23000000	8.63443653	-0.22758531	7.52999009	9.52166286	-0.04216744	2.94957212	9.62763248	1.55671809	2.04623899	9.68417417	-0.88847675	0.75367801	9.65359615	-0.72094816	1.78222085	9.78030585	-0.61761137	-0.85093841	4.40048088	0.64421873	8.95853381	3.58385175	0.56406743	11.86100604
25	0.24000000	8.60014982	-0.21953120	7.48705954	9.53885297	-0.05609454	2.95203507	9.63485036	1.60798984	2.09585889	9.68018036	-0.87309513	0.72603686	9.66343390	-0.74019580	1.76467719	9.75253448	-0.63004919	-0.82189467	4.43007814	0.62667850	8.94425914	3.56219309	0.56827516	11.87616423
26	0.25000000	8.60028948	-0.19575135	7.46622988	9.53341332	-0.05623254	2.96337473	9.63543399	1.64456951	2.11220237	9.68292993	-0.90196058	0.73500804	9.67719597	-0.79038586	1.75319048	9.74413205	-0.63627038	-0.80648298	4.39589820	0.61872824	8.94778211	3.56540111	0.57275413	11.86389402
27	0.26000000	8.60918527	-0.22871385	7.44882459	9.53015730	-0.05686612	2.96768252	9.64620394	1.63429500	2.09151137	9.66598827	-0.87538550	0.71471123	9.67826553	-0.78963487	1.76331356	9.75205804	-0.63546855	-0.81771900	4.40852222	0.64309812	8.91577712	3.57254009	0.57349324	11.84900537
28	0.27000000	8.59639470	-0.22823029	7.47731779	9.54750377	-0.05497570	2.95252557	9.64443446	1.63590381	2.03560626	9.64387840	-0.88612603	0.72660177	9.66225379	-0.78000972	1.74859541	9.76661697	-0.60403024	-0.84774393	4.42607812	0.65336587	8.94238712	3.57267382	0.56694419	11.85634135
29	0.28000000	8.60055812	-0.22713761	7.45911805	9.55422387	-0.06305841	2.94188487	9.64168003	1.65136817	2.06507434	9.67468660	-0.92566927	0.72604464	9.64856151	-0.78314716	1.75916940	9.77347173	-0.62672644	-0.82982459	4.42586876	0.64216123	8.97455947	3.58647632	0.55883115	11.84582607
30	0.29000000	8.63666291	-0.24219529	7.46496175	9.52627442	-0.08027420	2.92295995	9.65227185	1.64066444	2.11784108	9.64281528	-0.91903938	0.74058017	9.66380695	-0.73962297	1.73811635	9.73173763	-0.60657843	-0.81075646	4.39852865	0.62790117	8.95902779	3.56606206	0.58306006	11.83607417
31	0.30000000	8.63637276	-0.23207382	7.42170812	9.53286348	-0.10474803	2.94524389	9.64141296	1.62378183	2.15256569	9.66058885	-0.94582328	0.76960820	9.65557643	-0.72646220	1.75034919	9.76390560	-0.59870621	-0.83776360	4.38879206	0.63720258	8.92544424	3.57337388	0.55957958	11.85989976
32	0.31000000	8.64363276	-0.22638317	7.41677559	9.54944681	-0.08900298	2.93163497	9.69819979	1.60001378	2.15294226	9.70612402	-0.92735219	0.73781994	9.65739967	-0.73923734	1.79787360	9.77614565	-0.59721293	-0.84745781	4.37136486	0.60609327	8.98752455	3.56800682	0.56200827	11.85370186
33	0.32000000	8.63828692	-0.23981084	7.44966780	9.51796503	-0.06175995	2.92743129	9.73599489	1.59081822	2.12694999	9.69884193	-0.89443912	0.75373524	9.67134892	-0.76417566	1.77219720	9.77169077	-0.58811587	-0.83410636	4.37314531	0.61801701	8.95187987	3.57479767	0.56904409	11.86386652
34	0.33000000	8.66054406	-0.26413809	7.50682886	9.52806007	-0.05958321	2.93746332	9.70982777	1.56689853	2.21277233	9.69933806	-0.88916967	0.75107065	9.66881687	-0.78675175	1.76322948	9.77458942	-0.59703452	-0.85973118	4.35189983	0.65830650	8.93980113	3.58180475	0.57485939	11.85621675
35	0.34000000	8.63542675	-0.24226783	7.53227147	9.56683390	-0.03494238	2.93694007	9.70507688	1.50755590	2.11881304	9.73227573	-0.86326330	0.73783011	9.65992797	-0.77768588	1.77134476	9.74943545	-0.57402409	-0.84993621	4.39839599	0.62788191	8.99305759	3.57378708	0.56512295	11.83337638
36	0.35000000	8.60758514	-0.20560403	7.41158075	9.52464592	-0.01810933	2.96436010	9.68100939	1.56031126	2.02804275	9.73781120	-0.86785474	0.74525794	9.65659882	-0.75751768	1.76342722	9.73648656	-0.59900362	-0.87811446	4.41365503	0.65669723	8.96228996	3.57546230	0.56319652	11.83355154
37	0.36000000	8.62898083	-0.22417586	7.42924019	9.52759501	-0.00631066	2.98211989	9.63946683	1.61667275	2.06385612	9.69967830	-0.87225587	0.74065061	9.64125069	-0.78424639	1.78197028	9.74784551	-0.60139680	-0.85139651	4.39049159	0.64969416	8.96393773	3.56611742	0.57907305	11.85327438
38	0.37000000	8.62849205	-0.21953688	7.48771707	9.53324055	-0.00964644	2.97111809	9.63345297	1.62468186	2.07857689	9.66821900	-0.92201850	0.74809020	9.65867572	-0.79541176	1.74921479	9.75528325	-0.59595391	-0.82802128	4.41700494	0.59959844	8.96116478	3.56805620	0.58749123	11.84456411
39	0.38000000	8.58363880	-0.18173664	7.34175607	9.52394643	-0.03438630	2.93171000	9.59453366	1.63083816	2.07956656	9.67570210	-0.93639750	0.74074193	9.68519603	-0.77026560	1.76474090	9.72397294	-0.58521929	-0.83975081	4.41608291	0.63591269	8.96367506	3.57836023	0.56919057	11.83282477
40	0.39000000	8.58026679	-0.17156270	7.40023634	9.53421934	-0.04043212	2.92509781	9.64190575	1.63478288	2.10055736	9.67028353	-0.93144440	0.74723893	9.67458730	-0.80127189	1.78260885	9.73565956	-0.58188390	-0.83850010	4.38144796	0.63959515	8.95787967	3.58163814	0.57365230	11.86787253
41	0.40000000	8.57472761	-0.20223528	7.51072456	9.50317741	-0.04881002	2.95122816	9.66349282	1.61569063	2.11188954	9.68415018	-0.92817517	0.73880795	9.65174829	-0.79596411	1.75756737	9.74929773	-0.58159118	-0.84638006	4.38807095	0.62755663	8.94443194	3.60310366	0.55326389	11.86209596
42	0.41000000	8.59677932	-0.21454754	7.52426985	9.51628024	-0.01967516	2.96073631	9.64353050	1.62174947	2.08257528	9.66611450	-0.88903293	0.74350970	9.63670809	-0.74112980	1.78843978	9.73565145	-0.62172945	-0.84843636	4.42029724	0.64064337	8.97933206	3.55998792	0.57574892	11.85761786
